<svg width="50" height="50" viewBox="0 0 50 50" fill="none" xmlns="http://www.w3.org/2000/svg">
<path d="M43.6396 17.3021C43.6186 15.7242 43.3232 14.1621 42.7667 12.6854C42.2841 11.4399 41.547 10.3088 40.6025 9.36426C39.6579 8.41975 38.5268 7.68264 37.2813 7.20003C35.8236 6.65286 34.2837 6.35699 32.7271 6.32503C30.7229 6.23545 30.0875 6.21045 25 6.21045C19.9125 6.21045 19.2604 6.21045 17.2709 6.32503C15.7149 6.35723 14.1757 6.65309 12.7188 7.20003C11.4731 7.6823 10.3417 8.41929 9.39718 9.36385C8.45262 10.3084 7.71563 11.4397 7.23336 12.6854C6.68509 14.142 6.38986 15.6815 6.36044 17.2375C6.27086 19.2438 6.24377 19.8792 6.24377 24.9667C6.24377 30.0542 6.24377 30.7042 6.36044 32.6959C6.39169 34.2542 6.68544 35.7917 7.23336 37.2521C7.71644 38.4974 8.45397 39.6283 9.39885 40.5725C10.3437 41.5166 11.4752 42.2533 12.7209 42.7355C14.1738 43.3046 15.7133 43.6217 17.2729 43.6729C19.2792 43.7625 19.9146 43.7896 25.0021 43.7896C30.0896 43.7896 30.7417 43.7896 32.7313 43.6729C34.2878 43.6423 35.8279 43.3471 37.2854 42.8C38.5306 42.3169 39.6615 41.5796 40.6059 40.6351C41.5504 39.6907 42.2877 38.5598 42.7709 37.3146C43.3188 35.8563 43.6125 34.3188 43.6438 32.7584C43.7334 30.7542 43.7604 30.1188 43.7604 25.0292C43.7563 19.9417 43.7563 19.2959 43.6396 17.3021ZM24.9875 34.5875C19.6667 34.5875 15.3563 30.2771 15.3563 24.9563C15.3563 19.6354 19.6667 15.325 24.9875 15.325C27.5419 15.325 29.9916 16.3398 31.7978 18.146C33.6041 19.9522 34.6188 22.4019 34.6188 24.9563C34.6188 27.5106 33.6041 29.9604 31.7978 31.7666C29.9916 33.5728 27.5419 34.5875 24.9875 34.5875ZM35.0021 17.2146C34.7071 17.2149 34.4149 17.157 34.1423 17.0442C33.8697 16.9315 33.6221 16.766 33.4135 16.5574C33.2049 16.3488 33.0394 16.1012 32.9267 15.8285C32.8139 15.5559 32.756 15.2638 32.7563 14.9688C32.7563 14.674 32.8143 14.3821 32.9271 14.1097C33.04 13.8374 33.2053 13.5899 33.4138 13.3815C33.6222 13.173 33.8697 13.0077 34.142 12.8949C34.4144 12.7821 34.7063 12.724 35.0011 12.724C35.2959 12.724 35.5878 12.7821 35.8601 12.8949C36.1325 13.0077 36.3799 13.173 36.5884 13.3815C36.7968 13.5899 36.9622 13.8374 37.075 14.1097C37.1878 14.3821 37.2459 14.674 37.2459 14.9688C37.2459 16.2104 36.2417 17.2146 35.0021 17.2146Z" fill="white"/>
<path d="M24.9875 31.2127C28.4427 31.2127 31.2438 28.4117 31.2438 24.9564C31.2438 21.5012 28.4427 18.7002 24.9875 18.7002C21.5323 18.7002 18.7313 21.5012 18.7313 24.9564C18.7313 28.4117 21.5323 31.2127 24.9875 31.2127Z" fill="white"/>
</svg>
