<svg width="100" height="100" viewBox="0 0 100 100" fill="none" xmlns="http://www.w3.org/2000/svg">
<path d="M33.3333 50C37.7536 50 41.9928 48.2441 45.1184 45.1185C48.244 41.9929 50 37.7536 50 33.3334C50 28.9131 48.244 24.6738 45.1184 21.5482C41.9928 18.4226 37.7536 16.6667 33.3333 16.6667C28.913 16.6667 24.6738 18.4226 21.5482 21.5482C18.4226 24.6738 16.6666 28.9131 16.6666 33.3334C16.6666 37.7536 18.4226 41.9929 21.5482 45.1185C24.6738 48.2441 28.913 50 33.3333 50ZM70.8333 50C74.1485 50 77.3279 48.6831 79.6721 46.3389C82.0164 43.9947 83.3333 40.8152 83.3333 37.5C83.3333 34.1848 82.0164 31.0054 79.6721 28.6612C77.3279 26.317 74.1485 25 70.8333 25C67.5181 25 64.3387 26.317 61.9945 28.6612C59.6503 31.0054 58.3333 34.1848 58.3333 37.5C58.3333 40.8152 59.6503 43.9947 61.9945 46.3389C64.3387 48.6831 67.5181 50 70.8333 50ZM18.75 58.3334C13 58.3334 8.33331 63 8.33331 68.75C8.33331 68.75 8.33331 87.5 33.3333 87.5C53.15 87.5 57.2583 75.7167 58.1083 70.8334C58.3333 69.5584 58.3333 68.75 58.3333 68.75C58.3333 63 53.6666 58.3334 47.9166 58.3334H18.75ZM66.6333 71.6667C66.5373 73.1774 66.286 74.6742 65.8833 76.1334C65.3583 77.9917 64.4916 80.2167 63.0333 82.5084C65.5903 83.0812 68.2047 83.3581 70.825 83.3334C91.6583 83.3334 91.6583 68.75 91.6583 68.75C91.6583 63 86.9916 58.3334 81.2416 58.3334H63.5C65.5 61.3167 66.6583 64.8917 66.6583 68.75V70.8334L66.6333 71.6667Z" fill="#1150A3"/>
</svg>
