<svg width="100" height="100" viewBox="0 0 100 100" fill="none" xmlns="http://www.w3.org/2000/svg">
<path d="M70.8333 16.6666V41.6666L62.5 33.3333L54.1667 41.6666V16.6666H37.5V83.3333H79.1667V16.6666H70.8333ZM12.5 29.1666V20.8333H20.8333V16.6666C20.8333 14.4565 21.7113 12.3369 23.2741 10.7741C24.8369 9.21129 26.9565 8.33331 29.1667 8.33331H79.1667C83.5417 8.33331 87.5 12.2916 87.5 16.6666V83.3333C87.5 87.7083 83.5417 91.6667 79.1667 91.6667H29.1667C24.7917 91.6667 20.8333 87.7083 20.8333 83.3333V79.1667H12.5V70.8333H20.8333V54.1666H12.5V45.8333H20.8333V29.1666H12.5ZM20.8333 20.8333V29.1666H29.1667V20.8333H20.8333ZM20.8333 79.1667H29.1667V70.8333H20.8333V79.1667ZM20.8333 54.1666H29.1667V45.8333H20.8333V54.1666Z" fill="#1150A3"/>
</svg>
