<svg width="100" height="100" viewBox="0 0 100 100" fill="none" xmlns="http://www.w3.org/2000/svg">
<path d="M59.8333 59.2916C57.048 61.5373 53.5779 62.762 50 62.762C46.4221 62.762 42.952 61.5373 40.1667 59.2916C39.3158 58.5844 38.2188 58.2441 37.117 58.3457C36.0152 58.4473 34.9989 58.9824 34.2917 59.8333C33.5844 60.6842 33.2442 61.7812 33.3457 62.883C33.4473 63.9848 33.9824 65.0011 34.8333 65.7083C39.0889 69.2608 44.4565 71.2068 50 71.2068C55.5435 71.2068 60.9111 69.2608 65.1667 65.7083C66.0176 65.0011 66.5527 63.9848 66.6543 62.883C66.7558 61.7812 66.4156 60.6842 65.7083 59.8333C65.3581 59.412 64.9284 59.0638 64.4436 58.8085C63.9589 58.5533 63.4286 58.396 62.883 58.3457C61.7812 58.2441 60.6842 58.5844 59.8333 59.2916ZM37.5 45.8333C38.3241 45.8333 39.1297 45.5889 39.8149 45.1311C40.5001 44.6733 41.0341 44.0225 41.3495 43.2612C41.6649 42.4998 41.7474 41.662 41.5866 40.8538C41.4258 40.0455 41.029 39.3031 40.4463 38.7204C39.8636 38.1376 39.1211 37.7408 38.3129 37.58C37.5046 37.4193 36.6668 37.5018 35.9055 37.8171C35.1441 38.1325 34.4934 38.6666 34.0355 39.3518C33.5777 40.037 33.3333 40.8426 33.3333 41.6666C33.3333 42.7717 33.7723 43.8315 34.5537 44.6129C35.3351 45.3943 36.3949 45.8333 37.5 45.8333ZM62.5 37.5C61.6759 37.5 60.8703 37.7443 60.1851 38.2022C59.4999 38.66 58.9659 39.3108 58.6505 40.0721C58.3351 40.8335 58.2526 41.6713 58.4134 42.4795C58.5742 43.2878 58.971 44.0302 59.5537 44.6129C60.1364 45.1956 60.8789 45.5925 61.6871 45.7533C62.4954 45.914 63.3332 45.8315 64.0945 45.5161C64.8559 45.2008 65.5066 44.6667 65.9645 43.9815C66.4223 43.2963 66.6667 42.4907 66.6667 41.6666C66.6667 40.5616 66.2277 39.5018 65.4463 38.7204C64.6649 37.939 63.6051 37.5 62.5 37.5ZM50 8.33331C41.7591 8.33331 33.7033 10.777 26.8512 15.3554C19.9992 19.9338 14.6587 26.4412 11.505 34.0548C8.35137 41.6684 7.52623 50.0462 9.13395 58.1287C10.7417 66.2113 14.71 73.6356 20.5372 79.4628C26.3644 85.2899 33.7887 89.2583 41.8712 90.866C49.9538 92.4738 58.3316 91.6486 65.9451 88.495C73.5587 85.3413 80.0662 80.0008 84.6446 73.1487C89.223 66.2967 91.6667 58.2409 91.6667 50C91.6667 44.5282 90.5889 39.1101 88.495 34.0548C86.401 28.9996 83.3319 24.4063 79.4628 20.5372C75.5937 16.6681 71.0004 13.5989 65.9451 11.505C60.8899 9.41105 55.4717 8.33331 50 8.33331ZM50 83.3333C43.4073 83.3333 36.9626 81.3783 31.481 77.7156C25.9994 74.0529 21.7269 68.847 19.204 62.7561C16.6811 56.6652 16.021 49.963 17.3072 43.497C18.5933 37.0309 21.768 31.0915 26.4298 26.4298C31.0915 21.768 37.031 18.5933 43.497 17.3071C49.963 16.021 56.6652 16.6811 62.7561 19.204C68.847 21.7269 74.0529 25.9993 77.7157 31.481C81.3784 36.9626 83.3333 43.4073 83.3333 50C83.3333 58.8405 79.8214 67.319 73.5702 73.5702C67.319 79.8214 58.8406 83.3333 50 83.3333Z" fill="#1150A3"/>
</svg>
