<svg width="100" height="100" viewBox="0 0 100 100" fill="none" xmlns="http://www.w3.org/2000/svg">
<path d="M63.5312 67.125L70.5312 60.125C71.4741 59.1939 72.6669 58.5565 73.965 58.2902C75.263 58.024 76.6105 58.1403 77.8437 58.625L86.375 62.0313C87.6212 62.5371 88.6899 63.4006 89.4462 64.5128C90.2025 65.6251 90.6127 66.9363 90.625 68.2812V83.9062C90.6177 84.8212 90.4254 85.7252 90.0596 86.5638C89.6937 87.4025 89.162 88.1584 88.4963 88.7861C87.8306 89.4139 87.0448 89.9004 86.1861 90.2164C85.3275 90.5324 84.4138 90.6714 83.5 90.625C23.7187 86.9062 11.6562 36.2813 9.37499 16.9063C9.26909 15.9548 9.36585 14.9917 9.65889 14.0803C9.95193 13.169 10.4346 12.33 11.0752 11.6186C11.7158 10.9071 12.4997 10.3394 13.3755 9.95271C14.2512 9.56601 15.1989 9.36913 16.1562 9.37501H31.25C32.5969 9.37899 33.9118 9.78584 35.0256 10.5432C36.1394 11.3006 37.0011 12.3739 37.5 13.625L40.9062 22.1563C41.407 23.3846 41.5348 24.7333 41.2736 26.0338C41.0124 27.3343 40.3737 28.5291 39.4375 29.4688L32.4375 36.4688C32.4375 36.4688 36.4687 63.75 63.5312 67.125Z" fill="#1150A3"/>
</svg>
