<svg width="50" height="50" viewBox="0 0 50 50" fill="none" xmlns="http://www.w3.org/2000/svg">
<path d="M40.8125 13.9373C38.7357 13.4807 36.857 12.3778 35.446 10.7871C34.0349 9.1964 33.164 7.19957 32.9583 5.08317V4.1665H25.7708V32.6457C25.7723 33.9093 25.3761 35.1414 24.6384 36.1674C23.9007 37.1934 22.8589 37.9613 21.6605 38.3623C20.4622 38.7633 19.168 38.7771 17.9614 38.4017C16.7548 38.0263 15.6969 37.2807 14.9375 36.2707C14.2572 35.3766 13.8406 34.31 13.7349 33.1915C13.6291 32.073 13.8384 30.9472 14.3391 29.9415C14.8398 28.9358 15.6119 28.0902 16.5681 27.5004C17.5244 26.9106 18.6265 26.6001 19.75 26.604C20.3713 26.6005 20.9896 26.6918 21.5833 26.8748V19.5832C20.8924 19.4976 20.1961 19.4628 19.5 19.479C16.9361 19.5475 14.4477 20.3622 12.3398 21.8233C10.2318 23.2844 8.5956 25.3285 7.63161 27.7053C6.66763 30.0821 6.41766 32.6885 6.91232 35.2052C7.40699 37.7219 8.62481 40.0397 10.4167 41.8748C12.2531 43.7419 14.6031 45.021 17.1681 45.5494C19.7331 46.0779 22.3973 45.8319 24.8222 44.8427C27.2471 43.8536 29.3232 42.1659 30.7867 39.9941C32.2502 37.8224 33.0351 35.2645 33.0417 32.6457V18.0623C35.9405 20.1331 39.4167 21.2408 42.9792 21.229V14.1457C42.2794 14.1486 41.5812 14.0787 40.8958 13.9373H40.8125Z" fill="white"/>
</svg>
