<svg width="50" height="50" viewBox="0 0 50 50" fill="none" xmlns="http://www.w3.org/2000/svg">
<path d="M40.9021 16.6605C40.9292 17.0251 40.9292 17.3876 40.9292 17.7501C40.9292 28.8439 32.4854 41.6272 17.0542 41.6272C12.3 41.6272 7.88335 40.2501 4.16669 37.8585C4.84169 37.9356 5.49169 37.9626 6.19377 37.9626C9.97084 37.9718 13.6409 36.7088 16.6125 34.3772C14.8613 34.3455 13.1637 33.7678 11.7568 32.7246C10.3498 31.6814 9.30374 30.2249 8.7646 28.5585C9.28335 28.6356 9.80419 28.6876 10.35 28.6876C11.1021 28.6876 11.8584 28.5835 12.5604 28.4022C10.6599 28.0185 8.95101 26.9884 7.72423 25.487C6.49744 23.9856 5.82855 22.1056 5.83127 20.1668V20.0626C6.95002 20.6855 8.24794 21.0751 9.62294 21.1272C8.47104 20.3618 7.52652 19.3231 6.87365 18.1039C6.22077 16.8846 5.87984 15.5227 5.88127 14.1397C5.88127 12.5814 6.29585 11.1522 7.02294 9.90638C9.13156 12.5002 11.7615 14.6221 14.7424 16.1348C17.7233 17.6475 20.9887 18.5172 24.3271 18.6876C24.1979 18.0626 24.1188 17.4147 24.1188 16.7647C24.1182 15.6626 24.3349 14.5711 24.7564 13.5527C25.178 12.5343 25.7961 11.609 26.5754 10.8297C27.3548 10.0503 28.2801 9.43224 29.2984 9.01071C30.3168 8.58918 31.4083 8.3725 32.5104 8.37305C34.9271 8.37305 37.1084 9.38555 38.6417 11.023C40.5204 10.6598 42.322 9.97393 43.9667 8.99596C43.3405 10.9352 42.0287 12.5795 40.2771 13.621C41.9433 13.4309 43.5718 12.9927 45.1084 12.321C43.9607 13.9941 42.5386 15.4613 40.9021 16.6605Z" fill="white"/>
</svg>
